<?xml version="1.0" encoding="UTF-8"?>
<svg version="1.1" xmlns="http://www.w3.org/2000/svg" width="62" height="60">
<path d="M0 0 C7.40537259 -0.52895519 12.11139276 0.92800028 17.953125 5.54296875 C22.16419483 9.40901395 24.83707554 13.35150977 26 19 C26 20.65 26 22.3 26 24 C29.3 24 32.6 24 36 24 C36.45459427 30.36431973 35.79069966 34.7637802 32 40 C27.70467464 44.61319574 23.38381111 48.83930707 17 50 C15.35 50 13.7 50 12 50 C12 53.3 12 56.6 12 60 C4.59462741 60.52895519 -0.11139276 59.07199972 -5.953125 54.45703125 C-10.16419483 50.59098605 -12.83707554 46.64849023 -14 41 C-14 39.35 -14 37.7 -14 36 C-17.3 36 -20.6 36 -24 36 C-24.52895519 28.59462741 -23.07199972 23.88860724 -18.45703125 18.046875 C-14.59098605 13.83580517 -10.64849023 11.16292446 -5 10 C-3.35 10 -1.7 10 0 10 C0 6.7 0 3.4 0 0 Z M1 11 C1 14.3 1 17.6 1 21 C-0.2684375 21.061875 -0.2684375 21.061875 -1.5625 21.125 C-6.1162938 22.28414751 -9.05972232 24.32871406 -12 28 C-13.04671248 31.71699685 -13.04671248 31.71699685 -13 35 C-9.7 35 -6.4 35 -3 35 C-2.95875 35.845625 -2.9175 36.69125 -2.875 37.5625 C-1.71585249 42.1162938 0.32871406 45.05972232 4 48 C7.71699685 49.04671248 7.71699685 49.04671248 11 49 C11 45.7 11 42.4 11 39 C11.845625 38.95875 12.69125 38.9175 13.5625 38.875 C18.1162938 37.71585249 21.05972232 35.67128594 24 32 C25.04671248 28.28300315 25.04671248 28.28300315 25 25 C21.7 25 18.4 25 15 25 C14.95875 24.154375 14.9175 23.30875 14.875 22.4375 C13.71585249 17.8837062 11.67128594 14.94027768 8 12 C4.28300315 10.95328752 4.28300315 10.95328752 1 11 Z " fill="#E61313" transform="translate(24,0)"/>
<path d="M0 0 C0.33 0 0.66 0 1 0 C1 3.3 1 6.6 1 10 C1.99 10.33 2.98 10.66 4 11 C3.01 11 2.02 11 1 11 C1 14.3 1 17.6 1 21 C-0.2375 21.4125 -1.475 21.825 -2.75 22.25 C-6.33793364 23.61924676 -8.69746267 24.81187139 -11 28 C-12.27765265 31.63543901 -12.27765265 31.63543901 -13 35 C-9.7 35 -6.4 35 -3 35 C-3.33 35.99 -3.66 36.98 -4 38 C-4 37.34 -4 36.68 -4 36 C-6.97 36 -9.94 36 -13 36 C-13 37.65 -13 39.3 -13 41 C-13.33 41 -13.66 41 -14 41 C-14 39.35 -14 37.7 -14 36 C-17.3 36 -20.6 36 -24 36 C-24.52895519 28.59462741 -23.07199972 23.88860724 -18.45703125 18.046875 C-14.59098605 13.83580517 -10.64849023 11.16292446 -5 10 C-3.35 10 -1.7 10 0 10 C0 6.7 0 3.4 0 0 Z " fill="#E71313" transform="translate(24,0)"/>
<path d="M0 0 C3.3 0 6.6 0 10 0 C10.49611879 5.95342547 9.51470681 10.10352191 6 15 C-2.69521586 23.8959935 -2.69521586 23.8959935 -7.1640625 24.09765625 C-9.44270833 24.06510417 -11.72135417 24.03255208 -14 24 C-14 21.03 -14 18.06 -14 15 C-13.01 15 -12.02 15 -11 15 C-11 14.34 -11 13.68 -11 13 C-10.0925 12.4225 -9.185 11.845 -8.25 11.25 C-3.90860368 8.24441793 -1.66278398 4.98835194 0 0 Z " fill="#E61212" transform="translate(50,25)"/>
<path d="M0 0 C4.86500686 0.2948489 9.347845 2.8644029 13 6 C13 6.99 13 7.98 13 9 C11.61217515 9.8466034 10.21430603 10.67675339 8.8125 11.5 C8.03519531 11.9640625 7.25789063 12.428125 6.45703125 12.90625 C3.75896614 14.10729647 1.9193018 14.20741043 -1 14 C-1.02685938 11.85423363 -1.04633088 9.70837355 -1.0625 7.5625 C-1.07410156 6.36753906 -1.08570312 5.17257813 -1.09765625 3.94140625 C-1 1 -1 1 0 0 Z " fill="#FEFEFE" transform="translate(25,23)"/>
<path d="M0 0 C1.32 0.33 2.64 0.66 4 1 C3.01 1 2.02 1 1 1 C1 3.97 1 6.94 1 10 C2.65 10 4.3 10 6 10 C6 10.33 6 10.66 6 11 C4.35 11 2.7 11 1 11 C1 14.3 1 17.6 1 21 C0.67 21 0.34 21 0 21 C0 17.7 0 14.4 0 11 C-0.99 10.67 -1.98 10.34 -3 10 C-2.01 10 -1.02 10 0 10 C0 6.7 0 3.4 0 0 Z " fill="#F17D7D" transform="translate(35,39)"/>
<path d="M0 0 C0.33 0.99 0.66 1.98 1 3 C4.3 3 7.6 3 11 3 C10.67 3.99 10.34 4.98 10 6 C10 5.34 10 4.68 10 4 C7.03 4 4.06 4 1 4 C1 5.65 1 7.3 1 9 C0.67 9 0.34 9 0 9 C0 7.35 0 5.7 0 4 C-3.3 4 -6.6 4 -10 4 C-10 3.67 -10 3.34 -10 3 C-6.7 3 -3.4 3 0 3 C0 2.01 0 1.02 0 0 Z " fill="#F17F7F" transform="translate(10,32)"/>
<path d="M0 0 C0.33 0 0.66 0 1 0 C1 1.65 1 3.3 1 5 C4.3 5 7.6 5 11 5 C11 5.33 11 5.66 11 6 C7.7 6 4.4 6 1 6 C0.67 6.99 0.34 7.98 0 9 C0 8.01 0 7.02 0 6 C-3.3 6 -6.6 6 -10 6 C-9.67 5.01 -9.34 4.02 -9 3 C-9 3.66 -9 4.32 -9 5 C-6.03 5 -3.06 5 0 5 C0 3.35 0 1.7 0 0 Z " fill="#F28181" transform="translate(49,19)"/>
<path d="M0 0 C0.33 0 0.66 0 1 0 C1 3.3 1 6.6 1 10 C1.99 10.33 2.98 10.66 4 11 C3.01 11 2.02 11 1 11 C1 14.3 1 17.6 1 21 C0.01 20.67 -0.98 20.34 -2 20 C-1.34 20 -0.68 20 0 20 C0 17.03 0 14.06 0 11 C-1.65 11 -3.3 11 -5 11 C-5 10.67 -5 10.34 -5 10 C-3.35 10 -1.7 10 0 10 C0 6.7 0 3.4 0 0 Z " fill="#F18181" transform="translate(24,0)"/>
</svg>
